<svg xmlns="http://www.w3.org/2000/svg" viewBox="0 0 55 16" width="440" height="128" shape-rendering="crispEdges" role="img"><title>KMP</title><rect x="1" y="0" width="2" height="1" fill="#D9772F"/><rect x="9" y="0" width="2" height="1" fill="#D9772F"/><rect x="1" y="1" width="2" height="1" fill="#D9772F"/><rect x="4" y="1" width="4" height="1" fill="#5A3A24"/><rect x="9" y="1" width="2" height="1" fill="#D9772F"/><rect x="12" y="1" width="4" height="1" fill="#5A3A24"/><rect x="21" y="1" width="2" height="1" fill="#F1E6D2"/><rect x="29" y="1" width="2" height="1" fill="#F1E6D2"/><rect x="33" y="1" width="2" height="1" fill="#F1E6D2"/><rect x="41" y="1" width="2" height="1" fill="#F1E6D2"/><rect x="45" y="1" width="8" height="1" fill="#F1E6D2"/><rect x="1" y="2" width="2" height="1" fill="#D9772F"/><rect x="4" y="2" width="4" height="1" fill="#5A3A24"/><rect x="9" y="2" width="2" height="1" fill="#D9772F"/><rect x="12" y="2" width="4" height="1" fill="#5A3A24"/><rect x="21" y="2" width="2" height="1" fill="#F1E6D2"/><rect x="29" y="2" width="2" height="1" fill="#F1E6D2"/><rect x="33" y="2" width="2" height="1" fill="#F1E6D2"/><rect x="41" y="2" width="2" height="1" fill="#F1E6D2"/><rect x="45" y="2" width="8" height="1" fill="#F1E6D2"/><rect x="1" y="3" width="2" height="1" fill="#D9772F"/><rect x="9" y="3" width="2" height="1" fill="#D9772F"/><rect x="21" y="3" width="2" height="1" fill="#F1E6D2"/><rect x="27" y="3" width="2" height="1" fill="#F1E6D2"/><rect x="33" y="3" width="4" height="1" fill="#F1E6D2"/><rect x="39" y="3" width="4" height="1" fill="#F1E6D2"/><rect x="45" y="3" width="2" height="1" fill="#F1E6D2"/><rect x="53" y="3" width="2" height="1" fill="#F1E6D2"/><rect x="5" y="4" width="2" height="1" fill="#D9772F"/><rect x="13" y="4" width="2" height="1" fill="#D9772F"/><rect x="21" y="4" width="2" height="1" fill="#F1E6D2"/><rect x="27" y="4" width="2" height="1" fill="#F1E6D2"/><rect x="33" y="4" width="4" height="1" fill="#F1E6D2"/><rect x="39" y="4" width="4" height="1" fill="#F1E6D2"/><rect x="45" y="4" width="2" height="1" fill="#F1E6D2"/><rect x="53" y="4" width="2" height="1" fill="#F1E6D2"/><rect x="0" y="5" width="4" height="1" fill="#5A3A24"/><rect x="5" y="5" width="2" height="1" fill="#D9772F"/><rect x="8" y="5" width="4" height="1" fill="#5A3A24"/><rect x="13" y="5" width="2" height="1" fill="#D9772F"/><rect x="21" y="5" width="2" height="1" fill="#F1E6D2"/><rect x="25" y="5" width="2" height="1" fill="#F1E6D2"/><rect x="33" y="5" width="2" height="1" fill="#F1E6D2"/><rect x="37" y="5" width="2" height="1" fill="#F1E6D2"/><rect x="41" y="5" width="2" height="1" fill="#F1E6D2"/><rect x="45" y="5" width="2" height="1" fill="#F1E6D2"/><rect x="53" y="5" width="2" height="1" fill="#F1E6D2"/><rect x="0" y="6" width="4" height="1" fill="#5A3A24"/><rect x="5" y="6" width="2" height="1" fill="#D9772F"/><rect x="8" y="6" width="4" height="1" fill="#5A3A24"/><rect x="13" y="6" width="2" height="1" fill="#D9772F"/><rect x="21" y="6" width="2" height="1" fill="#F1E6D2"/><rect x="25" y="6" width="2" height="1" fill="#F1E6D2"/><rect x="33" y="6" width="2" height="1" fill="#F1E6D2"/><rect x="37" y="6" width="2" height="1" fill="#F1E6D2"/><rect x="41" y="6" width="2" height="1" fill="#F1E6D2"/><rect x="45" y="6" width="2" height="1" fill="#F1E6D2"/><rect x="53" y="6" width="2" height="1" fill="#F1E6D2"/><rect x="5" y="7" width="2" height="1" fill="#D9772F"/><rect x="13" y="7" width="2" height="1" fill="#D9772F"/><rect x="21" y="7" width="4" height="1" fill="#F1E6D2"/><rect x="33" y="7" width="2" height="1" fill="#F1E6D2"/><rect x="37" y="7" width="2" height="1" fill="#F1E6D2"/><rect x="41" y="7" width="2" height="1" fill="#F1E6D2"/><rect x="45" y="7" width="8" height="1" fill="#F1E6D2"/><rect x="1" y="8" width="2" height="1" fill="#D9772F"/><rect x="9" y="8" width="2" height="1" fill="#D9772F"/><rect x="21" y="8" width="4" height="1" fill="#F1E6D2"/><rect x="33" y="8" width="2" height="1" fill="#F1E6D2"/><rect x="37" y="8" width="2" height="1" fill="#F1E6D2"/><rect x="41" y="8" width="2" height="1" fill="#F1E6D2"/><rect x="45" y="8" width="8" height="1" fill="#F1E6D2"/><rect x="1" y="9" width="2" height="1" fill="#D9772F"/><rect x="4" y="9" width="4" height="1" fill="#5A3A24"/><rect x="9" y="9" width="2" height="1" fill="#D9772F"/><rect x="12" y="9" width="4" height="1" fill="#5A3A24"/><rect x="21" y="9" width="2" height="1" fill="#F1E6D2"/><rect x="25" y="9" width="2" height="1" fill="#F1E6D2"/><rect x="33" y="9" width="2" height="1" fill="#F1E6D2"/><rect x="41" y="9" width="2" height="1" fill="#F1E6D2"/><rect x="45" y="9" width="2" height="1" fill="#F1E6D2"/><rect x="1" y="10" width="2" height="1" fill="#D9772F"/><rect x="4" y="10" width="4" height="1" fill="#5A3A24"/><rect x="9" y="10" width="2" height="1" fill="#D9772F"/><rect x="12" y="10" width="4" height="1" fill="#5A3A24"/><rect x="21" y="10" width="2" height="1" fill="#F1E6D2"/><rect x="25" y="10" width="2" height="1" fill="#F1E6D2"/><rect x="33" y="10" width="2" height="1" fill="#F1E6D2"/><rect x="41" y="10" width="2" height="1" fill="#F1E6D2"/><rect x="45" y="10" width="2" height="1" fill="#F1E6D2"/><rect x="1" y="11" width="2" height="1" fill="#D9772F"/><rect x="9" y="11" width="2" height="1" fill="#D9772F"/><rect x="21" y="11" width="2" height="1" fill="#F1E6D2"/><rect x="27" y="11" width="2" height="1" fill="#F1E6D2"/><rect x="33" y="11" width="2" height="1" fill="#F1E6D2"/><rect x="41" y="11" width="2" height="1" fill="#F1E6D2"/><rect x="45" y="11" width="2" height="1" fill="#F1E6D2"/><rect x="5" y="12" width="2" height="1" fill="#D9772F"/><rect x="13" y="12" width="2" height="1" fill="#D9772F"/><rect x="21" y="12" width="2" height="1" fill="#F1E6D2"/><rect x="27" y="12" width="2" height="1" fill="#F1E6D2"/><rect x="33" y="12" width="2" height="1" fill="#F1E6D2"/><rect x="41" y="12" width="2" height="1" fill="#F1E6D2"/><rect x="45" y="12" width="2" height="1" fill="#F1E6D2"/><rect x="0" y="13" width="4" height="1" fill="#5A3A24"/><rect x="5" y="13" width="2" height="1" fill="#D9772F"/><rect x="8" y="13" width="4" height="1" fill="#5A3A24"/><rect x="13" y="13" width="2" height="1" fill="#D9772F"/><rect x="21" y="13" width="2" height="1" fill="#F1E6D2"/><rect x="29" y="13" width="2" height="1" fill="#F1E6D2"/><rect x="33" y="13" width="2" height="1" fill="#F1E6D2"/><rect x="41" y="13" width="2" height="1" fill="#F1E6D2"/><rect x="45" y="13" width="2" height="1" fill="#F1E6D2"/><rect x="0" y="14" width="4" height="1" fill="#5A3A24"/><rect x="5" y="14" width="2" height="1" fill="#D9772F"/><rect x="8" y="14" width="4" height="1" fill="#5A3A24"/><rect x="13" y="14" width="2" height="1" fill="#D9772F"/><rect x="21" y="14" width="2" height="1" fill="#F1E6D2"/><rect x="29" y="14" width="2" height="1" fill="#F1E6D2"/><rect x="33" y="14" width="2" height="1" fill="#F1E6D2"/><rect x="41" y="14" width="2" height="1" fill="#F1E6D2"/><rect x="45" y="14" width="2" height="1" fill="#F1E6D2"/><rect x="5" y="15" width="2" height="1" fill="#D9772F"/><rect x="13" y="15" width="2" height="1" fill="#D9772F"/></svg>
